<svg id="visual" viewBox="0 0 1200 864" width="1200" height="864" xmlns="http://www.w3.org/2000/svg" xmlns:xlink="http://www.w3.org/1999/xlink" version="1.1"><rect x="0" y="0" width="1200" height="864" fill="#E57F84"></rect><path d="M487 0L487 28L470 28L470 56L376 56L376 84L557 84L557 111L304 111L304 139L246 139L246 167L388 167L388 195L411 195L411 223L202 223L202 251L319 251L319 279L292 279L292 307L320 307L320 334L529 334L529 362L237 362L237 390L572 390L572 418L331 418L331 446L240 446L240 474L163 474L163 502L369 502L369 530L221 530L221 557L469 557L469 585L479 585L479 613L524 613L524 641L461 641L461 669L444 669L444 697L407 697L407 725L282 725L282 753L293 753L293 780L475 780L475 808L242 808L242 836L308 836L308 864" fill="none" stroke-linecap="square" stroke-linejoin="miter" stroke="#F4EAE6" stroke-width="40"></path></svg>